<?xml version="1.0" standalone="no"?>
<!DOCTYPE svg PUBLIC "-//W3C//DTD SVG 20010904//EN"
 "http://www.w3.org/TR/2001/REC-SVG-20010904/DTD/svg10.dtd">
<svg version="1.0" xmlns="http://www.w3.org/2000/svg"
 width="1025.000000pt" height="1025.000000pt" viewBox="0 0 1025.000000 1025.000000"
 preserveAspectRatio="xMidYMid meet">
<metadata>
Created by potrace 1.11, written by Peter Selinger 2001-2013
</metadata>
<g transform="translate(0.000000,1025.000000) scale(0.100000,-0.100000)"
fill="#000000" stroke="none">
<path d="M0 5125 l0 -5125 5125 0 5125 0 0 5125 0 5125 -5125 0 -5125 0 0
-5125z m7120 3318 c199 -68 359 -240 405 -435 13 -55 15 -435 15 -2898 0
-3146 6 -2883 -67 -3030 -72 -144 -223 -263 -388 -305 -89 -22 -3787 -22
-3883 0 -218 51 -402 241 -447 462 -13 64 -15 422 -13 2905 l3 2833 28 80 c55
156 157 274 302 346 146 72 4 68 2095 66 l1885 -2 65 -22z"/>
<path d="M5682 7970 c-45 -28 -68 -82 -53 -130 40 -134 231 -108 231 30 0 43
-27 87 -66 105 -43 20 -73 19 -112 -5z"/>
<path d="M6163 7976 c-57 -26 -80 -105 -48 -166 29 -57 48 -60 340 -60 286 0
320 -5 347 -52 10 -17 14 -97 18 -310 l5 -287 29 -30 c51 -53 125 -53 178 -1
l29 30 -3 312 c-3 298 -4 315 -25 361 -33 70 -113 149 -186 183 l-62 29 -295
2 c-237 2 -301 0 -327 -11z"/>
<path d="M5070 6068 c-26 -19 -60 -76 -169 -293 l-136 -270 -290 -42 c-159
-23 -304 -48 -321 -56 -33 -16 -64 -69 -64 -109 0 -13 8 -37 18 -54 13 -22
320 -329 420 -419 11 -10 4 -66 -38 -311 -49 -284 -51 -302 -37 -336 18 -44
53 -68 104 -74 34 -4 69 11 306 136 148 77 270 140 272 140 2 0 124 -63 272
-140 237 -125 272 -140 306 -136 51 6 86 30 104 74 14 34 12 52 -37 336 -42
245 -49 301 -38 311 100 90 407 397 421 419 9 17 17 41 17 54 0 40 -31 93 -64
109 -17 8 -161 33 -321 56 l-290 42 -136 270 c-146 289 -165 315 -234 315 -18
0 -47 -10 -65 -22z"/>
<path d="M3262 3162 c-17 -16 -33 -44 -37 -63 -4 -19 -5 -158 -3 -309 l3 -275
29 -62 c34 -73 113 -153 183 -186 46 -21 63 -22 360 -25 l312 -3 32 29 c26 23
32 38 36 79 5 47 3 53 -30 89 l-35 39 -289 5 c-303 5 -320 8 -345 53 -9 16
-14 103 -18 310 l-5 289 -33 29 c-26 24 -41 29 -81 29 -40 0 -54 -5 -79 -28z"/>
<path d="M4503 2469 c-17 -5 -41 -21 -52 -35 -65 -82 -9 -194 96 -194 66 0
113 52 113 124 0 39 -37 91 -73 101 -43 12 -52 13 -84 4z"/>
</g>
</svg>
